<svg width="164" height="217" viewBox="0 0 164 217" fill="none" xmlns="http://www.w3.org/2000/svg">
<g clip-path="url(#clip0_1_10970)">
<path d="M12.7698 55.25L20.4735 197.873L12.7698 55.25ZM12.7698 55.25H151.23L143.526 197.873L143.526 197.874M12.7698 55.25L143.526 197.874M143.526 197.874C142.962 208.197 135.598 216 126.99 216H37.0098C28.4015 216 21.0377 208.197 20.4735 197.874H143.526ZM50.4099 7.90057L50.4122 7.89516C52.2556 3.58731 55.9909 1 59.9625 1H104.038C108.009 1 111.744 3.58731 113.588 7.89516L113.59 7.90056L116.226 13.9613L116.487 14.5625H117.143H152.286C158.08 14.5625 163 20.033 163 27.125C163 34.217 158.08 39.6875 152.286 39.6875H11.7143C5.91959 39.6875 1 34.217 1 27.125C1 20.033 5.91959 14.5625 11.7143 14.5625H46.8571H47.5127L47.7742 13.9613L50.4099 7.90057Z" fill="#12DF00" stroke="white" stroke-width="2"/>
<g clip-path="url(#clip1_1_10970)">
<path d="M85.4038 71.627C89.2915 71.627 92.4324 74.7757 92.4324 78.6731V86.5339C92.7838 86.578 93.1133 86.622 93.4647 86.6881C93.5526 86.7101 93.6185 86.7101 93.7063 86.7321L104.249 88.6698C108.071 89.3744 110.597 93.0516 109.894 96.861C109.191 100.67 105.523 103.224 101.723 102.52L91.2903 100.604C84.4155 99.5913 78.3533 100.274 74.0922 101.969C69.8312 103.665 68.118 105.999 67.7226 108.157C67.2833 110.513 67.6128 111.834 67.9862 112.649C68.3815 113.507 69.1942 114.476 70.7976 115.555C74.3778 117.911 79.8688 119.453 86.9853 121.346L87.6222 121.522C93.904 123.196 101.592 125.222 107.302 128.965C110.421 131.013 113.364 133.787 115.187 137.663C117.054 141.604 117.45 146.008 116.593 150.698C115.078 159.065 109.323 164.658 102.185 167.587C99.1755 168.82 95.9028 169.612 92.4324 170.009V177.319C92.4324 181.216 89.2915 184.365 85.4038 184.365C81.5162 184.365 78.3753 181.216 78.3753 177.319V169.634C78.2874 169.612 78.1776 169.612 78.0897 169.59H78.0458C72.6865 168.754 63.8788 166.442 57.9485 163.799C54.4122 162.214 52.8088 158.052 54.3903 154.485C55.9717 150.918 60.1229 149.333 63.6592 150.918C68.2497 152.966 75.8055 154.992 80.1763 155.674C87.183 156.709 92.9596 156.115 96.8692 154.507C100.581 152.988 102.272 150.786 102.756 148.144C103.173 145.81 102.843 144.466 102.47 143.652C102.053 142.771 101.24 141.802 99.6147 140.723C96.0126 138.367 90.4996 136.826 83.3612 134.932L82.7462 134.778C76.4863 133.127 68.7988 131.079 63.0881 127.336C59.9692 125.288 57.0479 122.491 55.2249 118.616C53.4019 114.652 53.0285 110.249 53.8851 105.559C55.4665 97.1692 61.7483 91.7085 68.8867 88.868C71.808 87.701 75.0147 86.9083 78.3753 86.4459V78.6731C78.3753 74.7757 81.5162 71.627 85.4038 71.627Z" fill="white"/>
</g>
</g>
<defs>
<clipPath id="clip0_1_10970">
<rect width="164" height="217" fill="white"/>
</clipPath>
<clipPath id="clip1_1_10970">
<rect width="70.2857" height="112.738" fill="white" transform="translate(50.1519 71.627)"/>
</clipPath>
</defs>
</svg>
